<svg xmlns="http://www.w3.org/2000/svg" xmlns:xlink="http://www.w3.org/1999/xlink" version="1.0" x="0" y="0" width="2400" height="1510.7337883957198" viewBox="85.36040435791016 68.72170959472656 169.2791912841797 106.55658081054688" preserveAspectRatio="xMidYMid meet" color-interpolation-filters="sRGB"><g><defs><linearGradient id="92" x1="0%" y1="0%" x2="100%" y2="0%"><stop offset="0%" stop-color="#fa71cd"></stop> <stop offset="100%" stop-color="#9b59b6"></stop></linearGradient><linearGradient id="93" x1="0%" y1="0%" x2="100%" y2="0%"><stop offset="0%" stop-color="#f9d423"></stop> <stop offset="100%" stop-color="#f83600"></stop></linearGradient><linearGradient id="94" x1="0%" y1="0%" x2="100%" y2="0%"><stop offset="0%" stop-color="#0064d2"></stop> <stop offset="100%" stop-color="#1cb0f6"></stop></linearGradient><linearGradient id="95" x1="0%" y1="0%" x2="100%" y2="0%"><stop offset="0%" stop-color="#f00978"></stop> <stop offset="100%" stop-color="#3f51b1"></stop></linearGradient><linearGradient id="96" x1="0%" y1="0%" x2="100%" y2="0%"><stop offset="0%" stop-color="#7873f5"></stop> <stop offset="100%" stop-color="#ec77ab"></stop></linearGradient><linearGradient id="97" x1="0%" y1="0%" x2="100%" y2="0%"><stop offset="0%" stop-color="#f9d423"></stop> <stop offset="100%" stop-color="#e14fad"></stop></linearGradient><linearGradient id="98" x1="0%" y1="0%" x2="100%" y2="0%"><stop offset="0%" stop-color="#009efd"></stop> <stop offset="100%" stop-color="#2af598"></stop></linearGradient><linearGradient id="99" x1="0%" y1="0%" x2="100%" y2="0%"><stop offset="0%" stop-color="#ffcc00"></stop> <stop offset="100%" stop-color="#00b140"></stop></linearGradient><linearGradient id="100" x1="0%" y1="0%" x2="100%" y2="0%"><stop offset="0%" stop-color="#d51007"></stop> <stop offset="100%" stop-color="#ff8177"></stop></linearGradient><linearGradient id="102" x1="0%" y1="0%" x2="100%" y2="0%"><stop offset="0%" stop-color="#a2b6df"></stop> <stop offset="100%" stop-color="#0c3483"></stop></linearGradient><linearGradient id="103" x1="0%" y1="0%" x2="100%" y2="0%"><stop offset="0%" stop-color="#7ac5d8"></stop> <stop offset="100%" stop-color="#eea2a2"></stop></linearGradient><linearGradient id="104" x1="0%" y1="0%" x2="100%" y2="0%"><stop offset="0%" stop-color="#00ecbc"></stop> <stop offset="100%" stop-color="#007adf"></stop></linearGradient><linearGradient id="105" x1="0%" y1="0%" x2="100%" y2="0%"><stop offset="0%" stop-color="#b88746"></stop> <stop offset="100%" stop-color="#fdf5a6"></stop></linearGradient></defs><g fill="#333333" class="icon-text-wrapper icon-svg-group iconsvg" transform="translate(87.02000427246094,76.38130950927734)"><g class="iconsvg-imagesvg" transform="translate(52.97999572753906,0)" mask="url(#96f119c5-dce3-469a-a56f-9c5a72dc4997)"><g><rect fill="#333333" fill-opacity="0" stroke-width="2" x="0" y="0" width="60" height="53.877375094285405" class="image-rect"></rect> <svg filter="url(#colors7760305508)" x="0" y="0" width="60" height="53.877375094285405" filtersec="colorsf1239938642" class="image-svg-svg primary" style="overflow: visible;"><svg xmlns="http://www.w3.org/2000/svg" viewBox="-0.02977297641336918 0.0018004345474764705 111.4000015258789 100.0324935913086"><path d="M44.28 6.58a13.19 13.19 0 1 1 22.83 13.23l-24.21 42a13.2 13.2 0 0 1-22.84-13.25l24.22-42zm65.33 86.84a13.2 13.2 0 1 1-4.81-18 13.2 13.2 0 0 1 4.81 18zm-85 0a13.2 13.2 0 1 1-4.81-18 13.21 13.21 0 0 1 4.81 18zm40.9-50L44.28 80.19a13.19 13.19 0 1 0 22.83 13.23l21.25-36.81a13.2 13.2 0 1 0-22.84-13.22z" fill="#333" fill-rule="evenodd"></path></svg></svg> <defs><filter id="colors7760305508"><feColorMatrix type="matrix" values="0 0 0 0 0.98046875  0 0 0 0 0.73046875  0 0 0 0 0.06640625  0 0 0 1 0" class="icon-feColorMatrix "></feColorMatrix></filter> <filter id="colorsf1239938642"><feColorMatrix type="matrix" values="0 0 0 0 0.99609375  0 0 0 0 0.99609375  0 0 0 0 0.99609375  0 0 0 1 0" class="icon-fecolormatrix"></feColorMatrix></filter> <filter id="colorsb4991446860"><feColorMatrix type="matrix" values="0 0 0 0 0  0 0 0 0 0  0 0 0 0 0  0 0 0 1 0" class="icon-fecolormatrix"></feColorMatrix></filter></defs></g><rect v-gra="id" width="72" height="65.87737655639648" transform="translate(-6, -6)" style="pointer-events:none;" fill="url(#x3BmrfBnXfHfre54-VAbd)"></rect></g> <g transform="translate(0,60.877376556396484)"><g fill-rule="" class="tp-name iconsvg-namesvg"><g transform="scale(1)"><g><path d="M12.76-3.48Q14.76-3.36 14.76-1.68L14.76-1.68Q14.76-0.72 13.98-0.22 13.2 0.28 11.76 0.2L11.76 0.2 10.68 0.12Q3.96-0.36 3.96-7.08L3.96-7.08 3.96-15.8 1.96-15.8Q0.88-15.8 0.3-16.28-0.28-16.76-0.28-17.68L-0.28-17.68Q-0.28-18.6 0.3-19.08 0.88-19.56 1.96-19.56L1.96-19.56 3.96-19.56 3.96-23.24Q3.96-24.32 4.64-24.96 5.32-25.6 6.48-25.6L6.48-25.6Q7.6-25.6 8.28-24.96 8.96-24.32 8.96-23.24L8.96-23.24 8.96-19.56 12.36-19.56Q13.44-19.56 14.02-19.08 14.6-18.6 14.6-17.68L14.6-17.68Q14.6-16.76 14.02-16.28 13.44-15.8 12.36-15.8L12.36-15.8 8.96-15.8 8.96-6.72Q8.96-3.76 11.68-3.56L11.68-3.56 12.76-3.48ZM44.12-18.48Q44.4-19.2 44.94-19.56 45.48-19.92 46.12-19.92L46.12-19.92Q47.04-19.92 47.78-19.3 48.52-18.68 48.52-17.76L48.52-17.76Q48.52-17.24 48.32-16.84L48.32-16.84 41.72-1.36Q41.4-0.6 40.74-0.2 40.08 0.2 39.28 0.2L39.28 0.2Q38.52 0.2 37.86-0.2 37.2-0.6 36.88-1.36L36.88-1.36 32.12-12.8 27.52-1.36Q27.2-0.6 26.54-0.2 25.88 0.2 25.08 0.2L25.08 0.2Q24.32 0.2 23.64-0.2 22.96-0.6 22.64-1.36L22.64-1.36 16.08-16.84Q15.88-17.36 15.88-17.72L15.88-17.72Q15.88-18.64 16.68-19.3 17.48-19.96 18.44-19.96L18.44-19.96Q19.12-19.96 19.68-19.6 20.24-19.24 20.52-18.52L20.52-18.52 25.24-6.32 30.08-18.4Q30.4-19.16 31-19.54 31.6-19.92 32.32-19.92L32.32-19.92Q33.04-19.92 33.64-19.54 34.24-19.16 34.56-18.4L34.56-18.4 39.44-6.28 44.12-18.48ZM60.52 0.32Q57.52 0.32 55.26-0.92 53-2.16 51.76-4.48 50.52-6.8 50.52-9.88L50.52-9.88Q50.52-12.96 51.76-15.26 53-17.56 55.26-18.8 57.52-20.04 60.52-20.04L60.52-20.04Q63.52-20.04 65.78-18.8 68.04-17.56 69.26-15.26 70.48-12.96 70.48-9.88L70.48-9.88Q70.48-6.8 69.26-4.48 68.04-2.16 65.78-0.92 63.52 0.32 60.52 0.32L60.52 0.32ZM60.48-3.56Q62.92-3.56 64.2-5.16 65.48-6.76 65.48-9.88L65.48-9.88Q65.48-12.96 64.2-14.58 62.92-16.2 60.52-16.2L60.52-16.2Q58.12-16.2 56.82-14.58 55.52-12.96 55.52-9.88L55.52-9.88Q55.52-6.76 56.8-5.16 58.08-3.56 60.48-3.56L60.48-3.56ZM90.04-19.96Q91.2-19.96 91.88-19.32 92.56-18.68 92.56-17.6L92.56-17.6 92.56-2.08Q92.56-1.04 91.86-0.4 91.16 0.24 90.04 0.24L90.04 0.24Q88.96 0.24 88.32-0.36 87.68-0.96 87.68-2L87.68-2 87.68-3Q86.76-1.4 85.2-0.54 83.64 0.32 81.68 0.32L81.68 0.32Q74.48 0.32 74.48-7.76L74.48-7.76 74.48-17.6Q74.48-18.68 75.16-19.32 75.84-19.96 76.96-19.96L76.96-19.96Q78.12-19.96 78.8-19.32 79.48-18.68 79.48-17.6L79.48-17.6 79.48-7.72Q79.48-5.64 80.32-4.64 81.16-3.64 82.96-3.64L82.96-3.64Q85.04-3.64 86.3-5.02 87.56-6.4 87.56-8.68L87.56-8.68 87.56-17.6Q87.56-18.68 88.24-19.32 88.92-19.96 90.04-19.96L90.04-19.96ZM108.68-19.96Q109.72-20.04 110.32-19.52 110.92-19 110.92-17.96L110.92-17.96Q110.92-16.88 110.4-16.36 109.88-15.84 108.52-15.68L108.52-15.68 107.32-15.56Q104.96-15.32 103.86-13.96 102.76-12.6 102.76-10.56L102.76-10.56 102.76-2.16Q102.76-1 102.04-0.38 101.32 0.24 100.24 0.24L100.24 0.24Q99.16 0.24 98.46-0.38 97.76-1 97.76-2.16L97.76-2.16 97.76-17.64Q97.76-18.76 98.46-19.36 99.16-19.96 100.2-19.96L100.2-19.96Q101.24-19.96 101.88-19.38 102.52-18.8 102.52-17.72L102.52-17.72 102.52-16.12Q103.28-17.88 104.78-18.84 106.28-19.8 108.12-19.92L108.12-19.92 108.68-19.96ZM115.56 0.24Q114.48 0.24 113.78-0.38 113.08-1 113.08-2.16L113.08-2.16 113.08-17.6Q113.08-18.76 113.78-19.36 114.48-19.96 115.56-19.96L115.56-19.96Q116.64-19.96 117.36-19.36 118.08-18.76 118.08-17.6L118.08-17.6 118.08-2.16Q118.08-1 117.36-0.38 116.64 0.24 115.56 0.24L115.56 0.24ZM115.56-23.52Q114.2-23.52 113.4-24.26 112.6-25 112.6-26.2L112.6-26.2Q112.6-27.4 113.4-28.12 114.2-28.84 115.56-28.84L115.56-28.84Q116.88-28.84 117.7-28.12 118.52-27.4 118.52-26.2L118.52-26.2Q118.52-25 117.72-24.26 116.92-23.52 115.56-23.52L115.56-23.52ZM134.6-20.04Q138.12-20.04 139.84-18.04 141.56-16.04 141.56-12L141.56-12 141.56-2.16Q141.56-1.04 140.9-0.4 140.24 0.24 139.08 0.24L139.08 0.24Q137.92 0.24 137.24-0.4 136.56-1.04 136.56-2.16L136.56-2.16 136.56-11.72Q136.56-14 135.7-15.04 134.84-16.08 133-16.08L133-16.08Q130.84-16.08 129.54-14.72 128.24-13.36 128.24-11.08L128.24-11.08 128.24-2.16Q128.24-1.04 127.56-0.4 126.88 0.24 125.72 0.24L125.72 0.24Q124.56 0.24 123.9-0.4 123.24-1.04 123.24-2.16L123.24-2.16 123.24-17.64Q123.24-18.68 123.92-19.32 124.6-19.96 125.76-19.96L125.76-19.96Q126.8-19.96 127.46-19.34 128.12-18.72 128.12-17.72L128.12-17.72 128.12-16.64Q129.12-18.28 130.8-19.16 132.48-20.04 134.6-20.04L134.6-20.04ZM163.2-19.96Q164.32-19.96 165-19.32 165.68-18.68 165.68-17.6L165.68-17.6 165.68-1.8Q165.68 2.8 163.12 5.16 160.56 7.52 155.56 7.52L155.56 7.52Q151.2 7.52 148.28 5.88L148.28 5.88Q146.8 5 146.8 3.76L146.8 3.76Q146.8 2.88 147.22 2.36 147.64 1.84 148.32 1.84L148.32 1.84Q148.68 1.84 149.2 2.02 149.72 2.2 150.28 2.44L150.28 2.44Q151.72 3.04 152.86 3.36 154 3.68 155.48 3.68L155.48 3.68Q160.72 3.68 160.72-1.44L160.72-1.44 160.72-4Q159.84-2.36 158.16-1.46 156.48-0.56 154.32-0.56L154.32-0.56Q151.76-0.56 149.78-1.78 147.8-3 146.68-5.2 145.56-7.4 145.56-10.28L145.56-10.28Q145.56-13.16 146.66-15.38 147.76-17.6 149.76-18.82 151.76-20.04 154.32-20.04L154.32-20.04Q156.48-20.04 158.16-19.14 159.84-18.24 160.72-16.6L160.72-16.6 160.72-17.64Q160.72-18.68 161.4-19.32 162.08-19.96 163.2-19.96L163.2-19.96ZM155.64-4.44Q158.04-4.44 159.38-6 160.72-7.56 160.72-10.28L160.72-10.28Q160.72-13.04 159.38-14.6 158.04-16.16 155.64-16.16L155.64-16.16Q153.28-16.16 151.92-14.6 150.56-13.04 150.56-10.28L150.56-10.28Q150.56-7.56 151.92-6 153.28-4.44 155.64-4.44L155.64-4.44Z" transform="translate(0.2800000011920929, 28.84000015258789)"></path></g> </g></g> </g></g><defs v-gra="od"></defs><defs v-gra="id"><filter id="55c1ccec-f385-44c7-af7c-29fd41845e92" filterUnits="userSpaceOnUse"><feColorMatrix type="matrix" values="0 0 0 0 0.99609375  0 0 0 0 0.99609375  0 0 0 0 0.99609375  0 0 0 1 0"></feColorMatrix></filter><linearGradient x1="0" y1="1" x2="0" y2="0" id="x3BmrfBnXfHfre54-VAbd"><stop offset="0%" stop-color="#ff0844"></stop><stop offset="100%" stop-color="#ffb199"></stop></linearGradient><filter id="42443b3f1de60f6b6fd3b6a9844b4764" filterUnits="objectBoundingBox"><feColorMatrix type="matrix" values="0 0 0 0 0.99609375  0 0 0 0 0.99609375  0 0 0 0 0.99609375  0 0 0 1 0"></feColorMatrix></filter></defs><mask v-gra="im" id="96f119c5-dce3-469a-a56f-9c5a72dc4997"><g class="iconsvg-imagesvg" filter="url(#55c1ccec-f385-44c7-af7c-29fd41845e92)"><g><rect fill="#333333" fill-opacity="0" stroke-width="2" x="0" y="0" width="60" height="53.877375094285405" class="image-rect"></rect> <svg x="0" y="0" width="60" height="53.877375094285405" filtersec="colorsf1239938642" class="image-svg-svg primary" style="overflow: visible;"><svg xmlns="http://www.w3.org/2000/svg" viewBox="-0.02977297641336918 0.0018004345474764705 111.4000015258789 100.0324935913086"><path d="M44.28 6.58a13.19 13.19 0 1 1 22.83 13.23l-24.21 42a13.2 13.2 0 0 1-22.84-13.25l24.22-42zm65.33 86.84a13.2 13.2 0 1 1-4.81-18 13.2 13.2 0 0 1 4.81 18zm-85 0a13.2 13.2 0 1 1-4.81-18 13.21 13.21 0 0 1 4.81 18zm40.9-50L44.28 80.19a13.19 13.19 0 1 0 22.83 13.23l21.25-36.81a13.2 13.2 0 1 0-22.84-13.22z" fill="#333" fill-rule="evenodd"></path></svg></svg> <defs><filter id="colors7760305508"><feColorMatrix type="matrix" values="0 0 0 0 0.98046875  0 0 0 0 0.73046875  0 0 0 0 0.06640625  0 0 0 1 0" class="icon-fecolormatrix"></feColorMatrix></filter> <filter id="colorsf1239938642"><feColorMatrix type="matrix" values="0 0 0 0 0.99609375  0 0 0 0 0.99609375  0 0 0 0 0.99609375  0 0 0 1 0" class="icon-fecolormatrix"></feColorMatrix></filter> <filter id="colorsb4991446860"><feColorMatrix type="matrix" values="0 0 0 0 0  0 0 0 0 0  0 0 0 0 0  0 0 0 1 0" class="icon-fecolormatrix"></feColorMatrix></filter></defs></g></g></mask></g></svg>