<svg xmlns="http://www.w3.org/2000/svg" xmlns:xlink="http://www.w3.org/1999/xlink" version="1.0" x="0" y="0" width="2400" height="2199.917107511538" viewBox="133.28000099182128 91.34131080627441 73.43989883422852 67.31737075805664" preserveAspectRatio="xMidYMid meet" color-interpolation-filters="sRGB"><g><defs><linearGradient id="92" x1="0%" y1="0%" x2="100%" y2="0%"><stop offset="0%" stop-color="#fa71cd"></stop> <stop offset="100%" stop-color="#9b59b6"></stop></linearGradient><linearGradient id="93" x1="0%" y1="0%" x2="100%" y2="0%"><stop offset="0%" stop-color="#f9d423"></stop> <stop offset="100%" stop-color="#f83600"></stop></linearGradient><linearGradient id="94" x1="0%" y1="0%" x2="100%" y2="0%"><stop offset="0%" stop-color="#0064d2"></stop> <stop offset="100%" stop-color="#1cb0f6"></stop></linearGradient><linearGradient id="95" x1="0%" y1="0%" x2="100%" y2="0%"><stop offset="0%" stop-color="#f00978"></stop> <stop offset="100%" stop-color="#3f51b1"></stop></linearGradient><linearGradient id="96" x1="0%" y1="0%" x2="100%" y2="0%"><stop offset="0%" stop-color="#7873f5"></stop> <stop offset="100%" stop-color="#ec77ab"></stop></linearGradient><linearGradient id="97" x1="0%" y1="0%" x2="100%" y2="0%"><stop offset="0%" stop-color="#f9d423"></stop> <stop offset="100%" stop-color="#e14fad"></stop></linearGradient><linearGradient id="98" x1="0%" y1="0%" x2="100%" y2="0%"><stop offset="0%" stop-color="#009efd"></stop> <stop offset="100%" stop-color="#2af598"></stop></linearGradient><linearGradient id="99" x1="0%" y1="0%" x2="100%" y2="0%"><stop offset="0%" stop-color="#ffcc00"></stop> <stop offset="100%" stop-color="#00b140"></stop></linearGradient><linearGradient id="100" x1="0%" y1="0%" x2="100%" y2="0%"><stop offset="0%" stop-color="#d51007"></stop> <stop offset="100%" stop-color="#ff8177"></stop></linearGradient><linearGradient id="102" x1="0%" y1="0%" x2="100%" y2="0%"><stop offset="0%" stop-color="#a2b6df"></stop> <stop offset="100%" stop-color="#0c3483"></stop></linearGradient><linearGradient id="103" x1="0%" y1="0%" x2="100%" y2="0%"><stop offset="0%" stop-color="#7ac5d8"></stop> <stop offset="100%" stop-color="#eea2a2"></stop></linearGradient><linearGradient id="104" x1="0%" y1="0%" x2="100%" y2="0%"><stop offset="0%" stop-color="#00ecbc"></stop> <stop offset="100%" stop-color="#007adf"></stop></linearGradient><linearGradient id="105" x1="0%" y1="0%" x2="100%" y2="0%"><stop offset="0%" stop-color="#b88746"></stop> <stop offset="100%" stop-color="#fdf5a6"></stop></linearGradient></defs><g class="imagesvg isNoFont" transform="translate(140,98.06131172180176)"><g mask="url(#945a66f4-64be-4c10-8be1-d9b0f82b1108)"><rect fill="#333333" fill-opacity="0" stroke-width="2" x="0" y="0" width="60" height="53.877375094285405" class="image-rect"></rect> <svg x="0" y="0" width="60" height="53.877375094285405" filtersec="colorsf2625472789" class="image-svg-svg primary" style="overflow: visible;"><svg xmlns="http://www.w3.org/2000/svg" viewBox="-0.02977297641336918 0.0018004345474764705 111.4000015258789 100.0324935913086"><path d="M44.28 6.58a13.19 13.19 0 1 1 22.83 13.23l-24.21 42a13.2 13.2 0 0 1-22.84-13.25l24.22-42zm65.33 86.84a13.2 13.2 0 1 1-4.81-18 13.2 13.2 0 0 1 4.81 18zm-85 0a13.2 13.2 0 1 1-4.81-18 13.21 13.21 0 0 1 4.81 18zm40.9-50L44.28 80.19a13.19 13.19 0 1 0 22.83 13.23l21.25-36.81a13.2 13.2 0 1 0-22.84-13.22z" fill="#333" fill-rule="evenodd"></path></svg><rect v-gra="id" width="71.99990463256836" height="65.87737655639648" transform="translate(-6, -6)" style="pointer-events:none;" fill="url(#XtOK6inT_R1tXQVAXplOo)"></rect></svg> <defs><filter id="colors557958268"><feColorMatrix type="matrix" values="0 0 0 0 0.98046875  0 0 0 0 0.73046875  0 0 0 0 0.06640625  0 0 0 1 0" class="icon-feColorMatrix "></feColorMatrix></filter> <filter id="colorsf2625472789"><feColorMatrix type="matrix" values="0 0 0 0 0.99609375  0 0 0 0 0.99609375  0 0 0 0 0.99609375  0 0 0 1 0" class="icon-fecolormatrix"></feColorMatrix></filter> <filter id="colorsb184870584"><feColorMatrix type="matrix" values="0 0 0 0 0  0 0 0 0 0  0 0 0 0 0  0 0 0 1 0" class="icon-fecolormatrix"></feColorMatrix></filter></defs></g></g><defs v-gra="od"></defs><defs v-gra="id"><filter id="4ed98f01-340a-432d-b6b5-74d10a6892e3" filterUnits="userSpaceOnUse"><feColorMatrix type="matrix" values="0 0 0 0 0.99609375  0 0 0 0 0.99609375  0 0 0 0 0.99609375  0 0 0 1 0"></feColorMatrix></filter><linearGradient x1="0" y1="1" x2="0" y2="0" id="XtOK6inT_R1tXQVAXplOo"><stop offset="0%" stop-color="#ff0844"></stop><stop offset="100%" stop-color="#ffb199"></stop></linearGradient><filter id="42443b3f1de60f6b6fd3b6a9844b4764" filterUnits="objectBoundingBox"><feColorMatrix type="matrix" values="0 0 0 0 0.99609375  0 0 0 0 0.99609375  0 0 0 0 0.99609375  0 0 0 1 0"></feColorMatrix></filter></defs><mask v-gra="im" id="945a66f4-64be-4c10-8be1-d9b0f82b1108"><svg filter="url(#4ed98f01-340a-432d-b6b5-74d10a6892e3)" x="0" y="0" width="60" height="53.877375094285405" filtersec="colorsf2625472789" class="image-svg-svg primary" style="overflow: visible;"><svg xmlns="http://www.w3.org/2000/svg" viewBox="-0.02977297641336918 0.0018004345474764705 111.4000015258789 100.0324935913086"><path d="M44.28 6.58a13.19 13.19 0 1 1 22.83 13.23l-24.21 42a13.2 13.2 0 0 1-22.84-13.25l24.22-42zm65.33 86.84a13.2 13.2 0 1 1-4.81-18 13.2 13.2 0 0 1 4.81 18zm-85 0a13.2 13.2 0 1 1-4.81-18 13.21 13.21 0 0 1 4.81 18zm40.9-50L44.28 80.19a13.19 13.19 0 1 0 22.83 13.23l21.25-36.81a13.2 13.2 0 1 0-22.84-13.22z" fill="#333" fill-rule="evenodd"></path></svg></svg></mask></g></svg>