<svg xmlns="http://www.w3.org/2000/svg" xmlns:xlink="http://www.w3.org/1999/xlink" version="1.0" x="0" y="0" width="2400" height="1725.6120246783823" viewBox="85.36040435791016 61.14370666503906 169.2791912841797 121.71258666992188" preserveAspectRatio="xMidYMid meet" color-interpolation-filters="sRGB"><g><defs><linearGradient id="92" x1="0%" y1="0%" x2="100%" y2="0%"><stop offset="0%" stop-color="#fa71cd"></stop> <stop offset="100%" stop-color="#9b59b6"></stop></linearGradient><linearGradient id="93" x1="0%" y1="0%" x2="100%" y2="0%"><stop offset="0%" stop-color="#f9d423"></stop> <stop offset="100%" stop-color="#f83600"></stop></linearGradient><linearGradient id="94" x1="0%" y1="0%" x2="100%" y2="0%"><stop offset="0%" stop-color="#0064d2"></stop> <stop offset="100%" stop-color="#1cb0f6"></stop></linearGradient><linearGradient id="95" x1="0%" y1="0%" x2="100%" y2="0%"><stop offset="0%" stop-color="#f00978"></stop> <stop offset="100%" stop-color="#3f51b1"></stop></linearGradient><linearGradient id="96" x1="0%" y1="0%" x2="100%" y2="0%"><stop offset="0%" stop-color="#7873f5"></stop> <stop offset="100%" stop-color="#ec77ab"></stop></linearGradient><linearGradient id="97" x1="0%" y1="0%" x2="100%" y2="0%"><stop offset="0%" stop-color="#f9d423"></stop> <stop offset="100%" stop-color="#e14fad"></stop></linearGradient><linearGradient id="98" x1="0%" y1="0%" x2="100%" y2="0%"><stop offset="0%" stop-color="#009efd"></stop> <stop offset="100%" stop-color="#2af598"></stop></linearGradient><linearGradient id="99" x1="0%" y1="0%" x2="100%" y2="0%"><stop offset="0%" stop-color="#ffcc00"></stop> <stop offset="100%" stop-color="#00b140"></stop></linearGradient><linearGradient id="100" x1="0%" y1="0%" x2="100%" y2="0%"><stop offset="0%" stop-color="#d51007"></stop> <stop offset="100%" stop-color="#ff8177"></stop></linearGradient><linearGradient id="102" x1="0%" y1="0%" x2="100%" y2="0%"><stop offset="0%" stop-color="#a2b6df"></stop> <stop offset="100%" stop-color="#0c3483"></stop></linearGradient><linearGradient id="103" x1="0%" y1="0%" x2="100%" y2="0%"><stop offset="0%" stop-color="#7ac5d8"></stop> <stop offset="100%" stop-color="#eea2a2"></stop></linearGradient><linearGradient id="104" x1="0%" y1="0%" x2="100%" y2="0%"><stop offset="0%" stop-color="#00ecbc"></stop> <stop offset="100%" stop-color="#007adf"></stop></linearGradient><linearGradient id="105" x1="0%" y1="0%" x2="100%" y2="0%"><stop offset="0%" stop-color="#b88746"></stop> <stop offset="100%" stop-color="#fdf5a6"></stop></linearGradient></defs><g fill="#333333" class="icon-text-wrapper icon-svg-group iconsvg" transform="translate(87.02000427246094,68.80330657958984)"><g class="iconsvg-imagesvg" transform="translate(52.97999572753906,0)" mask="url(#d30fb5d2-1513-4f04-893a-9b9d36ae5ece)"><g><rect fill="#333333" fill-opacity="0" stroke-width="2" x="0" y="0" width="60" height="53.877375094285405" class="image-rect"></rect> <svg filter="url(#colors2483219576)" x="0" y="0" width="60" height="53.877375094285405" filtersec="colorsf4196574594" class="image-svg-svg primary" style="overflow: visible;"><svg xmlns="http://www.w3.org/2000/svg" viewBox="-0.02977297641336918 0.0018004345474764705 111.4000015258789 100.0324935913086"><path d="M44.28 6.58a13.19 13.19 0 1 1 22.83 13.23l-24.21 42a13.2 13.2 0 0 1-22.84-13.25l24.22-42zm65.33 86.84a13.2 13.2 0 1 1-4.81-18 13.2 13.2 0 0 1 4.81 18zm-85 0a13.2 13.2 0 1 1-4.81-18 13.21 13.21 0 0 1 4.81 18zm40.9-50L44.28 80.19a13.19 13.19 0 1 0 22.83 13.23l21.25-36.81a13.2 13.2 0 1 0-22.84-13.22z" fill="#333" fill-rule="evenodd"></path></svg></svg> <defs><filter id="colors2483219576"><feColorMatrix type="matrix" values="0 0 0 0 0.98046875  0 0 0 0 0.73046875  0 0 0 0 0.06640625  0 0 0 1 0" class="icon-feColorMatrix "></feColorMatrix></filter> <filter id="colorsf4196574594"><feColorMatrix type="matrix" values="0 0 0 0 0.99609375  0 0 0 0 0.99609375  0 0 0 0 0.99609375  0 0 0 1 0" class="icon-fecolormatrix"></feColorMatrix></filter> <filter id="colorsb6761832818"><feColorMatrix type="matrix" values="0 0 0 0 0  0 0 0 0 0  0 0 0 0 0  0 0 0 1 0" class="icon-fecolormatrix"></feColorMatrix></filter></defs></g><rect v-gra="id" width="72" height="65.87737655639648" transform="translate(-6, -6)" style="pointer-events:none;" fill="url(#WO5ss4rfNTayUh4CzkSTD)"></rect></g> <g transform="translate(0,60.877376556396484)"><g fill-rule="" class="tp-name iconsvg-namesvg" transform="translate(0,0)"><g transform="scale(1)"><g><path d="M12.76-3.48Q14.76-3.36 14.76-1.68L14.76-1.68Q14.76-0.72 13.98-0.22 13.2 0.28 11.76 0.2L11.76 0.2 10.68 0.12Q3.96-0.36 3.96-7.08L3.96-7.08 3.96-15.8 1.96-15.8Q0.88-15.8 0.3-16.28-0.28-16.76-0.28-17.68L-0.28-17.68Q-0.28-18.6 0.3-19.08 0.88-19.56 1.96-19.56L1.96-19.56 3.96-19.56 3.96-23.24Q3.96-24.32 4.64-24.96 5.32-25.6 6.48-25.6L6.48-25.6Q7.6-25.6 8.28-24.96 8.96-24.32 8.96-23.24L8.96-23.24 8.96-19.56 12.36-19.56Q13.44-19.56 14.02-19.08 14.6-18.6 14.6-17.68L14.6-17.68Q14.6-16.76 14.02-16.28 13.44-15.8 12.36-15.8L12.36-15.8 8.96-15.8 8.96-6.72Q8.96-3.76 11.68-3.56L11.68-3.56 12.76-3.48ZM44.12-18.48Q44.4-19.2 44.94-19.56 45.48-19.92 46.12-19.92L46.12-19.92Q47.04-19.92 47.78-19.3 48.52-18.68 48.52-17.76L48.52-17.76Q48.52-17.24 48.32-16.84L48.32-16.84 41.72-1.36Q41.4-0.6 40.74-0.2 40.08 0.2 39.28 0.2L39.28 0.2Q38.52 0.2 37.86-0.2 37.2-0.6 36.88-1.36L36.88-1.36 32.12-12.8 27.52-1.36Q27.2-0.6 26.54-0.2 25.88 0.2 25.08 0.2L25.08 0.2Q24.32 0.2 23.64-0.2 22.96-0.6 22.64-1.36L22.64-1.36 16.08-16.84Q15.88-17.36 15.88-17.72L15.88-17.72Q15.88-18.64 16.68-19.3 17.48-19.96 18.44-19.96L18.44-19.96Q19.12-19.96 19.68-19.6 20.24-19.24 20.52-18.52L20.52-18.52 25.24-6.32 30.08-18.4Q30.4-19.16 31-19.54 31.6-19.92 32.32-19.92L32.32-19.92Q33.04-19.92 33.64-19.54 34.24-19.16 34.56-18.4L34.56-18.4 39.44-6.28 44.12-18.48ZM60.52 0.32Q57.52 0.32 55.26-0.92 53-2.16 51.76-4.48 50.52-6.8 50.52-9.88L50.52-9.88Q50.52-12.96 51.76-15.26 53-17.56 55.26-18.8 57.52-20.04 60.52-20.04L60.52-20.04Q63.52-20.04 65.78-18.8 68.04-17.56 69.26-15.26 70.48-12.96 70.48-9.88L70.48-9.88Q70.48-6.8 69.26-4.48 68.04-2.16 65.78-0.92 63.52 0.32 60.52 0.32L60.52 0.32ZM60.48-3.56Q62.92-3.56 64.2-5.16 65.48-6.76 65.48-9.88L65.48-9.88Q65.48-12.96 64.2-14.58 62.92-16.2 60.52-16.2L60.52-16.2Q58.12-16.2 56.82-14.58 55.52-12.96 55.52-9.88L55.52-9.88Q55.52-6.76 56.8-5.16 58.08-3.56 60.48-3.56L60.48-3.56ZM90.04-19.96Q91.2-19.96 91.88-19.32 92.56-18.68 92.56-17.6L92.56-17.6 92.56-2.08Q92.56-1.04 91.86-0.4 91.16 0.24 90.04 0.24L90.04 0.24Q88.96 0.24 88.32-0.36 87.68-0.96 87.68-2L87.68-2 87.68-3Q86.76-1.4 85.2-0.54 83.64 0.32 81.68 0.32L81.68 0.32Q74.48 0.32 74.48-7.76L74.48-7.76 74.48-17.6Q74.48-18.68 75.16-19.32 75.84-19.96 76.96-19.96L76.96-19.96Q78.12-19.96 78.8-19.32 79.48-18.68 79.48-17.6L79.48-17.6 79.48-7.72Q79.48-5.64 80.32-4.64 81.16-3.64 82.96-3.64L82.96-3.64Q85.04-3.64 86.3-5.02 87.56-6.4 87.56-8.68L87.56-8.68 87.56-17.6Q87.56-18.68 88.24-19.32 88.92-19.96 90.04-19.96L90.04-19.96ZM108.68-19.96Q109.72-20.04 110.32-19.52 110.92-19 110.92-17.96L110.92-17.96Q110.92-16.88 110.4-16.36 109.88-15.84 108.52-15.68L108.52-15.68 107.32-15.56Q104.96-15.32 103.86-13.96 102.76-12.6 102.76-10.56L102.76-10.56 102.76-2.16Q102.76-1 102.04-0.38 101.32 0.24 100.24 0.24L100.24 0.24Q99.16 0.24 98.46-0.38 97.76-1 97.76-2.16L97.76-2.16 97.76-17.64Q97.76-18.76 98.46-19.36 99.16-19.96 100.2-19.96L100.2-19.96Q101.24-19.96 101.88-19.38 102.52-18.8 102.52-17.72L102.52-17.72 102.52-16.12Q103.28-17.88 104.78-18.84 106.28-19.8 108.12-19.92L108.12-19.92 108.68-19.96ZM115.56 0.24Q114.48 0.24 113.78-0.38 113.08-1 113.08-2.16L113.08-2.16 113.08-17.6Q113.08-18.76 113.78-19.36 114.48-19.96 115.56-19.96L115.56-19.96Q116.64-19.96 117.36-19.36 118.08-18.76 118.08-17.6L118.08-17.6 118.08-2.16Q118.08-1 117.36-0.38 116.64 0.24 115.56 0.24L115.56 0.24ZM115.56-23.52Q114.2-23.52 113.4-24.26 112.6-25 112.6-26.2L112.6-26.2Q112.6-27.4 113.4-28.12 114.2-28.84 115.56-28.84L115.56-28.84Q116.88-28.84 117.7-28.12 118.52-27.4 118.52-26.2L118.52-26.2Q118.52-25 117.72-24.26 116.92-23.52 115.56-23.52L115.56-23.52ZM134.6-20.04Q138.12-20.04 139.84-18.04 141.56-16.04 141.56-12L141.56-12 141.56-2.16Q141.56-1.04 140.9-0.4 140.24 0.24 139.08 0.24L139.08 0.24Q137.92 0.24 137.24-0.4 136.56-1.04 136.56-2.16L136.56-2.16 136.56-11.72Q136.56-14 135.7-15.04 134.84-16.08 133-16.08L133-16.08Q130.84-16.08 129.54-14.72 128.24-13.36 128.24-11.08L128.24-11.08 128.24-2.16Q128.24-1.04 127.56-0.4 126.88 0.24 125.72 0.24L125.72 0.24Q124.56 0.24 123.9-0.4 123.24-1.04 123.24-2.16L123.24-2.16 123.24-17.64Q123.24-18.68 123.92-19.32 124.6-19.96 125.76-19.96L125.76-19.96Q126.8-19.96 127.46-19.34 128.12-18.72 128.12-17.72L128.12-17.72 128.12-16.64Q129.12-18.28 130.8-19.16 132.48-20.04 134.6-20.04L134.6-20.04ZM163.2-19.96Q164.32-19.96 165-19.32 165.68-18.68 165.68-17.6L165.68-17.6 165.68-1.8Q165.68 2.8 163.12 5.16 160.56 7.52 155.56 7.52L155.56 7.52Q151.2 7.52 148.28 5.88L148.28 5.88Q146.8 5 146.8 3.76L146.8 3.76Q146.8 2.88 147.22 2.36 147.64 1.84 148.32 1.84L148.32 1.84Q148.68 1.84 149.2 2.02 149.72 2.2 150.28 2.44L150.28 2.44Q151.72 3.04 152.86 3.36 154 3.68 155.48 3.68L155.48 3.68Q160.72 3.68 160.72-1.44L160.72-1.44 160.72-4Q159.84-2.36 158.16-1.46 156.48-0.56 154.32-0.56L154.32-0.56Q151.76-0.56 149.78-1.78 147.8-3 146.68-5.2 145.56-7.4 145.56-10.28L145.56-10.28Q145.56-13.16 146.66-15.38 147.76-17.6 149.76-18.82 151.76-20.04 154.32-20.04L154.32-20.04Q156.48-20.04 158.16-19.14 159.84-18.24 160.72-16.6L160.72-16.6 160.72-17.64Q160.72-18.68 161.4-19.32 162.08-19.96 163.2-19.96L163.2-19.96ZM155.64-4.44Q158.04-4.44 159.38-6 160.72-7.56 160.72-10.28L160.72-10.28Q160.72-13.04 159.38-14.6 158.04-16.16 155.64-16.16L155.64-16.16Q153.28-16.16 151.92-14.6 150.56-13.04 150.56-10.28L150.56-10.28Q150.56-7.56 151.92-6 153.28-4.44 155.64-4.44L155.64-4.44Z" transform="translate(0.2800000011920929, 28.84000015258789)"></path></g> </g></g> <g fill-rule="" class="tp-slogan iconsvg-slogansvg" fill="#333333" transform="translate(12.894996643066406,43.36000442504883)"> <g transform="scale(1, 1)"><g transform="scale(1)"><path d="M2.71 0L2.71-7.03L0.34-7.03L0.34-7.87L6.10-7.87L6.10-7.03L3.72-7.03L3.72 0L2.71 0ZM10.13 0.14L10.13 0.14Q9.38 0.14 8.77-0.14Q8.15-0.43 7.70-0.97Q7.26-1.50 7.01-2.26Q6.77-3.02 6.77-3.97L6.77-3.97Q6.77-4.92 7.01-5.67Q7.26-6.42 7.70-6.94Q8.15-7.46 8.77-7.74Q9.38-8.02 10.13-8.02L10.13-8.02Q10.87-8.02 11.49-7.73Q12.11-7.45 12.56-6.93Q13.01-6.41 13.25-5.66Q13.50-4.91 13.50-3.97L13.50-3.97Q13.50-3.02 13.25-2.26Q13.01-1.50 12.56-0.97Q12.11-0.43 11.49-0.14Q10.87 0.14 10.13 0.14ZM10.13-0.73L10.13-0.73Q10.66-0.73 11.08-0.96Q11.51-1.19 11.81-1.61Q12.12-2.04 12.29-2.63Q12.46-3.23 12.46-3.97L12.46-3.97Q12.46-4.70 12.29-5.29Q12.12-5.88 11.81-6.29Q11.51-6.70 11.08-6.92Q10.66-7.14 10.13-7.14L10.13-7.14Q9.60-7.14 9.17-6.92Q8.75-6.70 8.44-6.29Q8.14-5.88 7.97-5.29Q7.80-4.70 7.80-3.97L7.80-3.97Q7.80-3.23 7.97-2.63Q8.14-2.04 8.44-1.61Q8.75-1.19 9.17-0.96Q9.60-0.73 10.13-0.73ZM15.16-3.25L15.16-7.87L16.15-7.87L16.15-3.23Q16.15-2.52 16.30-2.04Q16.44-1.56 16.69-1.27Q16.93-0.98 17.27-0.86Q17.60-0.73 17.99-0.73L17.99-0.73Q18.38-0.73 18.72-0.86Q19.06-0.98 19.31-1.27Q19.56-1.56 19.70-2.04Q19.85-2.52 19.85-3.23L19.85-3.23L19.85-7.87L20.81-7.87L20.81-3.25Q20.81-2.30 20.59-1.66Q20.38-1.01 20.00-0.61Q19.62-0.20 19.10-0.03Q18.59 0.14 17.99 0.14L17.99 0.14Q17.39 0.14 16.87-0.03Q16.34-0.20 15.97-0.61Q15.59-1.01 15.37-1.66Q15.16-2.30 15.16-3.25L15.16-3.25ZM23.93-7.07L23.93-4.14L25.25-4.14Q26.17-4.14 26.66-4.52Q27.16-4.90 27.16-5.66L27.16-5.66Q27.16-6.44 26.66-6.76Q26.17-7.07 25.25-7.07L25.25-7.07L23.93-7.07ZM28.38 0L27.25 0L25.36-3.32L23.93-3.32L23.93 0L22.93 0L22.93-7.87L25.39-7.87Q25.99-7.87 26.50-7.76Q27.01-7.64 27.38-7.38Q27.74-7.12 27.95-6.70Q28.15-6.28 28.15-5.66L28.15-5.66Q28.15-4.74 27.67-4.19Q27.19-3.64 26.39-3.43L26.39-3.43L28.38 0ZM33.60 0L33.60-3.05L31.24-7.87L32.30-7.87L33.32-5.65Q33.52-5.22 33.70-4.80Q33.88-4.38 34.08-3.94L34.08-3.94L34.13-3.94Q34.33-4.38 34.54-4.80Q34.74-5.22 34.92-5.65L34.92-5.65L35.93-7.87L36.97-7.87L34.61-3.05L34.61 0L33.60 0ZM40.78 0.14L40.78 0.14Q40.03 0.14 39.41-0.14Q38.80-0.43 38.35-0.97Q37.91-1.50 37.66-2.26Q37.42-3.02 37.42-3.97L37.42-3.97Q37.42-4.92 37.66-5.67Q37.91-6.42 38.35-6.94Q38.80-7.46 39.41-7.74Q40.03-8.02 40.78-8.02L40.78-8.02Q41.52-8.02 42.14-7.73Q42.76-7.45 43.21-6.93Q43.66-6.41 43.90-5.66Q44.15-4.91 44.15-3.97L44.15-3.97Q44.15-3.02 43.90-2.26Q43.66-1.50 43.21-0.97Q42.76-0.43 42.14-0.14Q41.52 0.14 40.78 0.14ZM40.78-0.73L40.78-0.73Q41.30-0.73 41.73-0.96Q42.16-1.19 42.46-1.61Q42.77-2.04 42.94-2.63Q43.10-3.23 43.10-3.97L43.10-3.97Q43.10-4.70 42.94-5.29Q42.77-5.88 42.46-6.29Q42.16-6.70 41.73-6.92Q41.30-7.14 40.78-7.14L40.78-7.14Q40.25-7.14 39.82-6.92Q39.40-6.70 39.09-6.29Q38.78-5.88 38.62-5.29Q38.45-4.70 38.45-3.97L38.45-3.97Q38.45-3.23 38.62-2.63Q38.78-2.04 39.09-1.61Q39.40-1.19 39.82-0.96Q40.25-0.73 40.78-0.73ZM45.80-3.25L45.80-7.87L46.80-7.87L46.80-3.23Q46.80-2.52 46.94-2.04Q47.09-1.56 47.33-1.27Q47.58-0.98 47.92-0.86Q48.25-0.73 48.64-0.73L48.64-0.73Q49.03-0.73 49.37-0.86Q49.70-0.98 49.96-1.27Q50.21-1.56 50.35-2.04Q50.50-2.52 50.50-3.23L50.50-3.23L50.50-7.87L51.46-7.87L51.46-3.25Q51.46-2.30 51.24-1.66Q51.02-1.01 50.65-0.61Q50.27-0.20 49.75-0.03Q49.24 0.14 48.64 0.14L48.64 0.14Q48.04 0.14 47.51-0.03Q46.99-0.20 46.61-0.61Q46.24-1.01 46.02-1.66Q45.80-2.30 45.80-3.25L45.80-3.25ZM54.58-7.07L54.58-4.14L55.90-4.14Q56.82-4.14 57.31-4.52Q57.80-4.90 57.80-5.66L57.80-5.66Q57.80-6.44 57.31-6.76Q56.82-7.07 55.90-7.07L55.90-7.07L54.58-7.07ZM59.03 0L57.90 0L56.00-3.32L54.58-3.32L54.58 0L53.58 0L53.58-7.87L56.04-7.87Q56.64-7.87 57.15-7.76Q57.66-7.64 58.03-7.38Q58.39-7.12 58.60-6.70Q58.80-6.28 58.80-5.66L58.80-5.66Q58.80-4.74 58.32-4.19Q57.84-3.64 57.04-3.43L57.04-3.43L59.03 0ZM62.98 0L62.98-7.87L63.97-7.87L63.97-0.85L67.42-0.85L67.42 0L62.98 0ZM68.81 0L68.81-7.87L69.80-7.87L69.80 0L68.81 0ZM71.96 0L71.96-7.87L76.50-7.87L76.50-7.03L72.96-7.03L72.96-4.37L75.96-4.37L75.96-3.53L72.96-3.53L72.96 0L71.96 0ZM77.89 0L77.89-7.87L82.43-7.87L82.43-7.03L78.89-7.03L78.89-4.56L81.88-4.56L81.88-3.71L78.89-3.71L78.89-0.85L82.55-0.85L82.55 0L77.89 0ZM88.27 0L88.27-7.03L85.90-7.03L85.90-7.87L91.66-7.87L91.66-7.03L89.28-7.03L89.28 0L88.27 0ZM95.69 0.14L95.69 0.14Q94.94 0.14 94.33-0.14Q93.71-0.43 93.26-0.97Q92.82-1.50 92.57-2.26Q92.33-3.02 92.33-3.97L92.33-3.97Q92.33-4.92 92.57-5.67Q92.82-6.42 93.26-6.94Q93.71-7.46 94.33-7.74Q94.94-8.02 95.69-8.02L95.69-8.02Q96.43-8.02 97.05-7.73Q97.67-7.45 98.12-6.93Q98.57-6.41 98.81-5.66Q99.06-4.91 99.06-3.97L99.06-3.97Q99.06-3.02 98.81-2.26Q98.57-1.50 98.12-0.97Q97.67-0.43 97.05-0.14Q96.43 0.14 95.69 0.14ZM95.69-0.73L95.69-0.73Q96.22-0.73 96.64-0.96Q97.07-1.19 97.37-1.61Q97.68-2.04 97.85-2.63Q98.02-3.23 98.02-3.97L98.02-3.97Q98.02-4.70 97.85-5.29Q97.68-5.88 97.37-6.29Q97.07-6.70 96.64-6.92Q96.22-7.14 95.69-7.14L95.69-7.14Q95.16-7.14 94.73-6.92Q94.31-6.70 94.00-6.29Q93.70-5.88 93.53-5.29Q93.36-4.70 93.36-3.97L93.36-3.97Q93.36-3.23 93.53-2.63Q93.70-2.04 94.00-1.61Q94.31-1.19 94.73-0.96Q95.16-0.73 95.69-0.73ZM100.30-3.94L100.30-3.94Q100.30-4.88 100.57-5.64Q100.84-6.40 101.32-6.92Q101.81-7.45 102.47-7.73Q103.13-8.02 103.92-8.02L103.92-8.02Q104.74-8.02 105.28-7.71Q105.83-7.40 106.18-7.04L106.18-7.04L105.61-6.41Q105.31-6.72 104.92-6.93Q104.53-7.14 103.93-7.14L103.93-7.14Q103.33-7.14 102.85-6.92Q102.37-6.70 102.04-6.28Q101.70-5.87 101.51-5.28Q101.33-4.69 101.33-3.96L101.33-3.96Q101.33-3.22 101.50-2.62Q101.68-2.03 102.01-1.61Q102.34-1.19 102.82-0.96Q103.31-0.73 103.94-0.73L103.94-0.73Q104.36-0.73 104.74-0.86Q105.12-0.98 105.36-1.20L105.36-1.20L105.36-3.25L103.69-3.25L103.69-4.08L106.27-4.08L106.27-0.77Q105.89-0.37 105.26-0.11Q104.63 0.14 103.84 0.14L103.84 0.14Q103.06 0.14 102.41-0.13Q101.76-0.41 101.29-0.93Q100.82-1.45 100.56-2.21Q100.30-2.98 100.30-3.94ZM108.16 0L108.16-7.87L112.69-7.87L112.69-7.03L109.15-7.03L109.15-4.56L112.14-4.56L112.14-3.71L109.15-3.71L109.15-0.85L112.81-0.85L112.81 0L108.16 0ZM116.11 0L116.11-7.03L113.74-7.03L113.74-7.87L119.50-7.87L119.50-7.03L117.12-7.03L117.12 0L116.11 0ZM120.91 0L120.91-7.87L121.91-7.87L121.91-4.57L125.57-4.57L125.57-7.87L126.58-7.87L126.58 0L125.57 0L125.57-3.71L121.91-3.71L121.91 0L120.91 0ZM128.74 0L128.74-7.87L133.27-7.87L133.27-7.03L129.73-7.03L129.73-4.56L132.72-4.56L132.72-3.71L129.73-3.71L129.73-0.85L133.39-0.85L133.39 0L128.74 0ZM136.06-7.07L136.06-4.14L137.38-4.14Q138.30-4.14 138.79-4.52Q139.28-4.90 139.28-5.66L139.28-5.66Q139.28-6.44 138.79-6.76Q138.30-7.07 137.38-7.07L137.38-7.07L136.06-7.07ZM140.51 0L139.38 0L137.48-3.32L136.06-3.32L136.06 0L135.06 0L135.06-7.87L137.52-7.87Q138.12-7.87 138.63-7.76Q139.14-7.64 139.51-7.38Q139.87-7.12 140.08-6.70Q140.28-6.28 140.28-5.66L140.28-5.66Q140.28-4.74 139.80-4.19Q139.32-3.64 138.52-3.43L138.52-3.43L140.51 0Z" transform="translate(-0.336, 8.016)"></path></g></g></g></g></g><defs v-gra="od"></defs><defs v-gra="id"><filter id="591f63d8-c715-49ca-83ba-194d33fc0764" filterUnits="userSpaceOnUse"><feColorMatrix type="matrix" values="0 0 0 0 0.99609375  0 0 0 0 0.99609375  0 0 0 0 0.99609375  0 0 0 1 0"></feColorMatrix></filter><linearGradient x1="0" y1="1" x2="0" y2="0" id="WO5ss4rfNTayUh4CzkSTD"><stop offset="0%" stop-color="#ff0844"></stop><stop offset="100%" stop-color="#ffb199"></stop></linearGradient><filter id="42443b3f1de60f6b6fd3b6a9844b4764" filterUnits="objectBoundingBox"><feColorMatrix type="matrix" values="0 0 0 0 0.99609375  0 0 0 0 0.99609375  0 0 0 0 0.99609375  0 0 0 1 0"></feColorMatrix></filter></defs><mask v-gra="im" id="d30fb5d2-1513-4f04-893a-9b9d36ae5ece"><g class="iconsvg-imagesvg" filter="url(#591f63d8-c715-49ca-83ba-194d33fc0764)"><g><rect fill="#333333" fill-opacity="0" stroke-width="2" x="0" y="0" width="60" height="53.877375094285405" class="image-rect"></rect> <svg x="0" y="0" width="60" height="53.877375094285405" filtersec="colorsf4196574594" class="image-svg-svg primary" style="overflow: visible;"><svg xmlns="http://www.w3.org/2000/svg" viewBox="-0.02977297641336918 0.0018004345474764705 111.4000015258789 100.0324935913086"><path d="M44.28 6.58a13.19 13.19 0 1 1 22.83 13.23l-24.21 42a13.2 13.2 0 0 1-22.84-13.25l24.22-42zm65.33 86.84a13.2 13.2 0 1 1-4.81-18 13.2 13.2 0 0 1 4.81 18zm-85 0a13.2 13.2 0 1 1-4.81-18 13.21 13.21 0 0 1 4.81 18zm40.9-50L44.28 80.19a13.19 13.19 0 1 0 22.83 13.23l21.25-36.81a13.2 13.2 0 1 0-22.84-13.22z" fill="#333" fill-rule="evenodd"></path></svg></svg> <defs><filter id="colors2483219576"><feColorMatrix type="matrix" values="0 0 0 0 0.98046875  0 0 0 0 0.73046875  0 0 0 0 0.06640625  0 0 0 1 0" class="icon-fecolormatrix"></feColorMatrix></filter> <filter id="colorsf4196574594"><feColorMatrix type="matrix" values="0 0 0 0 0.99609375  0 0 0 0 0.99609375  0 0 0 0 0.99609375  0 0 0 1 0" class="icon-fecolormatrix"></feColorMatrix></filter> <filter id="colorsb6761832818"><feColorMatrix type="matrix" values="0 0 0 0 0  0 0 0 0 0  0 0 0 0 0  0 0 0 1 0" class="icon-fecolormatrix"></feColorMatrix></filter></defs></g></g></mask></g></svg>